{
	"asset":{
		"generator":"Khronos glTF Blender I/O v4.3.47",
		"version":"2.0"
	},
	"scene":0,
	"scenes":[
		{
			"name":"Scene",
			"nodes":[
				0,
				1,
				2,
				3
			]
		}
	],
	"nodes":[
		{
			"mesh":0,
			"name":"Sphere"
		},
		{
			"mesh":1,
			"name":"Cube",
			"scale":[
				2.478919506072998,
				2.4189512729644775,
				1.6886889934539795
			],
			"translation":[
				0,
				0,
				1.2698734998703003
			]
		},
		{
			"mesh":2,
			"name":"Sphere.001",
			"scale":[
				0.6715037822723389,
				0.6715037822723389,
				0.6715037822723389
			],
			"translation":[
				0,
				0,
				-0.19868040084838867
			]
		},
		{
			"mesh":3,
			"name":"Curve.004"
		}
	],
	"materials":[
		{
			"doubleSided":true,
			"name":"SVGMat.001",
			"pbrMetallicRoughness":{
				"baseColorFactor":[
					0.8008674383163452,
					0.004769505932927132,
					0.017624106258153915,
					1
				],
				"metallicFactor":0,
				"roughnessFactor":0.5
			}
		}
	],
	"meshes":[
		{
			"name":"Sphere",
			"primitives":[
				{
					"attributes":{
						"POSITION":0,
						"NORMAL":1,
						"TEXCOORD_0":2
					},
					"indices":3
				}
			]
		},
		{
			"name":"Cube.001",
			"primitives":[
				{
					"attributes":{
						"POSITION":4,
						"NORMAL":5,
						"TEXCOORD_0":6
					},
					"indices":7
				}
			]
		},
		{
			"name":"Sphere.001",
			"primitives":[
				{
					"attributes":{
						"POSITION":8,
						"NORMAL":9,
						"TEXCOORD_0":10
					},
					"indices":11
				}
			]
		},
		{
			"name":"Curve.004",
			"primitives":[
				{
					"attributes":{
						"POSITION":12,
						"NORMAL":13,
						"TEXCOORD_0":14
					},
					"indices":15,
					"material":0
				}
			]
		}
	],
	"accessors":[
		{
			"bufferView":0,
			"componentType":5126,
			"count":439,
			"max":[
				2.000000238418579,
				2,
				2.000000476837158
			],
			"min":[
				-2.0000009536743164,
				-2,
				-2
			],
			"type":"VEC3"
		},
		{
			"bufferView":1,
			"componentType":5126,
			"count":439,
			"type":"VEC3"
		},
		{
			"bufferView":2,
			"componentType":5126,
			"count":439,
			"type":"VEC2"
		},
		{
			"bufferView":3,
			"componentType":5123,
			"count":2280,
			"type":"SCALAR"
		},
		{
			"bufferView":4,
			"componentType":5126,
			"count":24,
			"max":[
				1,
				1,
				1
			],
			"min":[
				-1,
				-1,
				-1
			],
			"type":"VEC3"
		},
		{
			"bufferView":5,
			"componentType":5126,
			"count":24,
			"type":"VEC3"
		},
		{
			"bufferView":6,
			"componentType":5126,
			"count":24,
			"type":"VEC2"
		},
		{
			"bufferView":7,
			"componentType":5123,
			"count":36,
			"type":"SCALAR"
		},
		{
			"bufferView":8,
			"componentType":5126,
			"count":439,
			"max":[
				2.000000238418579,
				2,
				2.000000476837158
			],
			"min":[
				-2.0000009536743164,
				-2,
				-2
			],
			"type":"VEC3"
		},
		{
			"bufferView":9,
			"componentType":5126,
			"count":439,
			"type":"VEC3"
		},
		{
			"bufferView":10,
			"componentType":5126,
			"count":439,
			"type":"VEC2"
		},
		{
			"bufferView":11,
			"componentType":5123,
			"count":2280,
			"type":"SCALAR"
		},
		{
			"bufferView":12,
			"componentType":5126,
			"count":17038,
			"max":[
				0.8139745593070984,
				0.04699999839067459,
				-0.01979973167181015
			],
			"min":[
				-0.0002224505878984928,
				-0.04699999839067459,
				-0.24863530695438385
			],
			"type":"VEC3"
		},
		{
			"bufferView":13,
			"componentType":5126,
			"count":17038,
			"type":"VEC3"
		},
		{
			"bufferView":14,
			"componentType":5126,
			"count":17038,
			"type":"VEC2"
		},
		{
			"bufferView":15,
			"componentType":5123,
			"count":92772,
			"type":"SCALAR"
		}
	],
	"bufferViews":[
		{
			"buffer":0,
			"byteLength":5268,
			"byteOffset":0,
			"target":34962
		},
		{
			"buffer":0,
			"byteLength":5268,
			"byteOffset":5268,
			"target":34962
		},
		{
			"buffer":0,
			"byteLength":3512,
			"byteOffset":10536,
			"target":34962
		},
		{
			"buffer":0,
			"byteLength":4560,
			"byteOffset":14048,
			"target":34963
		},
		{
			"buffer":0,
			"byteLength":288,
			"byteOffset":18608,
			"target":34962
		},
		{
			"buffer":0,
			"byteLength":288,
			"byteOffset":18896,
			"target":34962
		},
		{
			"buffer":0,
			"byteLength":192,
			"byteOffset":19184,
			"target":34962
		},
		{
			"buffer":0,
			"byteLength":72,
			"byteOffset":19376,
			"target":34963
		},
		{
			"buffer":0,
			"byteLength":5268,
			"byteOffset":19448,
			"target":34962
		},
		{
			"buffer":0,
			"byteLength":5268,
			"byteOffset":24716,
			"target":34962
		},
		{
			"buffer":0,
			"byteLength":3512,
			"byteOffset":29984,
			"target":34962
		},
		{
			"buffer":0,
			"byteLength":4560,
			"byteOffset":33496,
			"target":34963
		},
		{
			"buffer":0,
			"byteLength":204456,
			"byteOffset":38056,
			"target":34962
		},
		{
			"buffer":0,
			"byteLength":204456,
			"byteOffset":242512,
			"target":34962
		},
		{
			"buffer":0,
			"byteLength":136304,
			"byteOffset":446968,
			"target":34962
		},
		{
			"buffer":0,
			"byteLength":185544,
			"byteOffset":583272,
			"target":34963
		}
	],
	"buffers":[
		{
			"byteLength":768816,
			"uri":"core.bin"
		}
	]
}
