{
    "asset": {
        "copyright": "2025 (c) Adobe Inc.",
        "generator": "Adobe Substance 3D Stager - 71e900fc2bce8c66db9475ffdc4ac3f89b2e4b0c",
        "version": "2.0"
    },
    "accessors": [
        {
            "bufferView": 0,
            "componentType": 5126,
            "count": 3037,
            "type": "VEC3",
            "max": [
                0.09099958837032318,
                0.08518552780151367,
                0.0038382208440452816
            ],
            "min": [
                0.005990599747747183,
                -0.0006347616435959935,
                -0.013838221319019795
            ]
        },
        {
            "bufferView": 1,
            "componentType": 5126,
            "count": 3037,
            "type": "VEC3"
        },
        {
            "bufferView": 2,
            "componentType": 5126,
            "count": 3037,
            "type": "VEC4"
        },
        {
            "bufferView": 3,
            "componentType": 5126,
            "count": 3037,
            "type": "VEC2"
        },
        {
            "bufferView": 4,
            "componentType": 5125,
            "count": 630,
            "type": "SCALAR",
            "max": [
                1961.0
            ],
            "min": [
                55.0
            ]
        },
        {
            "bufferView": 5,
            "componentType": 5125,
            "count": 2475,
            "type": "SCALAR",
            "max": [
                2970.0
            ],
            "min": [
                0.0
            ]
        },
        {
            "bufferView": 6,
            "componentType": 5125,
            "count": 3588,
            "type": "SCALAR",
            "max": [
                3036.0
            ],
            "min": [
                1336.0
            ]
        },
        {
            "bufferView": 7,
            "componentType": 5125,
            "count": 3105,
            "type": "SCALAR",
            "max": [
                2644.0
            ],
            "min": [
                369.0
            ]
        },
        {
            "bufferView": 8,
            "componentType": 5126,
            "count": 4452,
            "type": "VEC3",
            "max": [
                0.15309631824493409,
                0.0563671849668026,
                0.003713645739480853
            ],
            "min": [
                0.10206116735935211,
                -0.0015234355814754964,
                -0.013713645748794079
            ]
        },
        {
            "bufferView": 9,
            "componentType": 5126,
            "count": 4452,
            "type": "VEC3"
        },
        {
            "bufferView": 10,
            "componentType": 5126,
            "count": 4452,
            "type": "VEC4"
        },
        {
            "bufferView": 11,
            "componentType": 5126,
            "count": 4452,
            "type": "VEC2"
        },
        {
            "bufferView": 12,
            "componentType": 5125,
            "count": 1746,
            "type": "SCALAR",
            "max": [
                2980.0
            ],
            "min": [
                0.0
            ]
        },
        {
            "bufferView": 13,
            "componentType": 5125,
            "count": 3060,
            "type": "SCALAR",
            "max": [
                4360.0
            ],
            "min": [
                1.0
            ]
        },
        {
            "bufferView": 14,
            "componentType": 5125,
            "count": 4824,
            "type": "SCALAR",
            "max": [
                4451.0
            ],
            "min": [
                1826.0
            ]
        },
        {
            "bufferView": 15,
            "componentType": 5125,
            "count": 4806,
            "type": "SCALAR",
            "max": [
                4268.0
            ],
            "min": [
                600.0
            ]
        },
        {
            "bufferView": 16,
            "componentType": 5126,
            "count": 1619,
            "type": "VEC3",
            "max": [
                0.19064916670322419,
                0.09102539718151093,
                0.003621927462518215
            ],
            "min": [
                0.16140034794807435,
                -0.0006347656017169356,
                -0.013621926307678223
            ]
        },
        {
            "bufferView": 17,
            "componentType": 5126,
            "count": 1619,
            "type": "VEC3"
        },
        {
            "bufferView": 18,
            "componentType": 5126,
            "count": 1619,
            "type": "VEC4"
        },
        {
            "bufferView": 19,
            "componentType": 5126,
            "count": 1619,
            "type": "VEC2"
        },
        {
            "bufferView": 20,
            "componentType": 5125,
            "count": 423,
            "type": "SCALAR",
            "max": [
                1039.0
            ],
            "min": [
                52.0
            ]
        },
        {
            "bufferView": 21,
            "componentType": 5125,
            "count": 1266,
            "type": "SCALAR",
            "max": [
                1614.0
            ],
            "min": [
                0.0
            ]
        },
        {
            "bufferView": 22,
            "componentType": 5125,
            "count": 1884,
            "type": "SCALAR",
            "max": [
                1618.0
            ],
            "min": [
                722.0
            ]
        },
        {
            "bufferView": 23,
            "componentType": 5125,
            "count": 1689,
            "type": "SCALAR",
            "max": [
                1448.0
            ],
            "min": [
                204.0
            ]
        },
        {
            "bufferView": 24,
            "componentType": 5126,
            "count": 1619,
            "type": "VEC3",
            "max": [
                0.227179154753685,
                0.09102538973093033,
                0.0036219251342117788
            ],
            "min": [
                0.19793033599853517,
                -0.0006347617600113153,
                -0.013621924445033074
            ]
        },
        {
            "bufferView": 25,
            "componentType": 5126,
            "count": 1619,
            "type": "VEC3"
        },
        {
            "bufferView": 26,
            "componentType": 5126,
            "count": 1619,
            "type": "VEC4"
        },
        {
            "bufferView": 27,
            "componentType": 5126,
            "count": 1619,
            "type": "VEC2"
        },
        {
            "bufferView": 28,
            "componentType": 5126,
            "count": 4726,
            "type": "VEC3",
            "max": [
                0.29320791363716128,
                0.0563671849668026,
                0.0037565124221146108
            ],
            "min": [
                0.23531730473041535,
                -0.0015234374441206456,
                -0.013756511732935906
            ]
        },
        {
            "bufferView": 29,
            "componentType": 5126,
            "count": 4726,
            "type": "VEC3"
        },
        {
            "bufferView": 30,
            "componentType": 5126,
            "count": 4726,
            "type": "VEC4"
        },
        {
            "bufferView": 31,
            "componentType": 5126,
            "count": 4726,
            "type": "VEC2"
        },
        {
            "bufferView": 32,
            "componentType": 5125,
            "count": 2109,
            "type": "SCALAR",
            "max": [
                3214.0
            ],
            "min": [
                1.0
            ]
        },
        {
            "bufferView": 33,
            "componentType": 5125,
            "count": 3063,
            "type": "SCALAR",
            "max": [
                3217.0
            ],
            "min": [
                0.0
            ]
        },
        {
            "bufferView": 34,
            "componentType": 5125,
            "count": 4992,
            "type": "SCALAR",
            "max": [
                4725.0
            ],
            "min": [
                1820.0
            ]
        },
        {
            "bufferView": 35,
            "componentType": 5125,
            "count": 5172,
            "type": "SCALAR",
            "max": [
                3879.0
            ],
            "min": [
                654.0
            ]
        }
    ],
    "bufferViews": [
        {
            "buffer": 0,
            "byteOffset": 0,
            "byteLength": 36444,
            "target": 34962
        },
        {
            "buffer": 0,
            "byteOffset": 36444,
            "byteLength": 36444,
            "target": 34962
        },
        {
            "buffer": 0,
            "byteOffset": 72888,
            "byteLength": 48592,
            "target": 34962
        },
        {
            "buffer": 0,
            "byteOffset": 121480,
            "byteLength": 24296,
            "target": 34962
        },
        {
            "buffer": 0,
            "byteOffset": 145776,
            "byteLength": 2520,
            "target": 34963
        },
        {
            "buffer": 0,
            "byteOffset": 148296,
            "byteLength": 9900,
            "target": 34963
        },
        {
            "buffer": 0,
            "byteOffset": 158196,
            "byteLength": 14352,
            "target": 34963
        },
        {
            "buffer": 0,
            "byteOffset": 172548,
            "byteLength": 12420,
            "target": 34963
        },
        {
            "buffer": 0,
            "byteOffset": 184968,
            "byteLength": 53424,
            "target": 34962
        },
        {
            "buffer": 0,
            "byteOffset": 238392,
            "byteLength": 53424,
            "target": 34962
        },
        {
            "buffer": 0,
            "byteOffset": 291816,
            "byteLength": 71232,
            "target": 34962
        },
        {
            "buffer": 0,
            "byteOffset": 363048,
            "byteLength": 35616,
            "target": 34962
        },
        {
            "buffer": 0,
            "byteOffset": 398664,
            "byteLength": 6984,
            "target": 34963
        },
        {
            "buffer": 0,
            "byteOffset": 405648,
            "byteLength": 12240,
            "target": 34963
        },
        {
            "buffer": 0,
            "byteOffset": 417888,
            "byteLength": 19296,
            "target": 34963
        },
        {
            "buffer": 0,
            "byteOffset": 437184,
            "byteLength": 19224,
            "target": 34963
        },
        {
            "buffer": 0,
            "byteOffset": 456408,
            "byteLength": 19428,
            "target": 34962
        },
        {
            "buffer": 0,
            "byteOffset": 475836,
            "byteLength": 19428,
            "target": 34962
        },
        {
            "buffer": 0,
            "byteOffset": 495264,
            "byteLength": 25904,
            "target": 34962
        },
        {
            "buffer": 0,
            "byteOffset": 521168,
            "byteLength": 12952,
            "target": 34962
        },
        {
            "buffer": 0,
            "byteOffset": 534120,
            "byteLength": 1692,
            "target": 34963
        },
        {
            "buffer": 0,
            "byteOffset": 535812,
            "byteLength": 5064,
            "target": 34963
        },
        {
            "buffer": 0,
            "byteOffset": 540876,
            "byteLength": 7536,
            "target": 34963
        },
        {
            "buffer": 0,
            "byteOffset": 548412,
            "byteLength": 6756,
            "target": 34963
        },
        {
            "buffer": 0,
            "byteOffset": 555168,
            "byteLength": 19428,
            "target": 34962
        },
        {
            "buffer": 0,
            "byteOffset": 574596,
            "byteLength": 19428,
            "target": 34962
        },
        {
            "buffer": 0,
            "byteOffset": 594024,
            "byteLength": 25904,
            "target": 34962
        },
        {
            "buffer": 0,
            "byteOffset": 619928,
            "byteLength": 12952,
            "target": 34962
        },
        {
            "buffer": 0,
            "byteOffset": 632880,
            "byteLength": 56712,
            "target": 34962
        },
        {
            "buffer": 0,
            "byteOffset": 689592,
            "byteLength": 56712,
            "target": 34962
        },
        {
            "buffer": 0,
            "byteOffset": 746304,
            "byteLength": 75616,
            "target": 34962
        },
        {
            "buffer": 0,
            "byteOffset": 821920,
            "byteLength": 37808,
            "target": 34962
        },
        {
            "buffer": 0,
            "byteOffset": 859728,
            "byteLength": 8436,
            "target": 34963
        },
        {
            "buffer": 0,
            "byteOffset": 868164,
            "byteLength": 12252,
            "target": 34963
        },
        {
            "buffer": 0,
            "byteOffset": 880416,
            "byteLength": 19968,
            "target": 34963
        },
        {
            "buffer": 0,
            "byteOffset": 900384,
            "byteLength": 20688,
            "target": 34963
        }
    ],
    "buffers": [
        {
            "byteLength": 921072,
            "uri": "hello2_binary.bin"
        }
    ],
    "materials": [
        {
            "pbrMetallicRoughness": {
                "baseColorFactor": [
                    0.1778884083032608,
                    0.9559735059738159,
                    0.5840784907341003,
                    1.0
                ],
                "metallicFactor": 0.0,
                "roughnessFactor": 0.30000001192092898
            },
            "name": "default_material7",
            "doubleSided": true
        },
        {
            "pbrMetallicRoughness": {
                "baseColorFactor": [
                    0.5,
                    0.5,
                    0.5,
                    1.0
                ],
                "metallicFactor": 0.0,
                "roughnessFactor": 0.30000001192092898
            },
            "name": "default_material8",
            "doubleSided": true
        },
        {
            "pbrMetallicRoughness": {
                "baseColorFactor": [
                    1.0,
                    0.006995410192757845,
                    0.006995410192757845,
                    1.0
                ],
                "metallicFactor": 0.0,
                "roughnessFactor": 0.30000001192092898
            },
            "name": "default_material10",
            "doubleSided": true
        },
        {
            "pbrMetallicRoughness": {
                "baseColorFactor": [
                    0.8713672161102295,
                    0.03189602866768837,
                    0.03189602866768837,
                    1.0
                ],
                "metallicFactor": 0.0,
                "roughnessFactor": 0.30000001192092898
            },
            "name": "default_material11",
            "doubleSided": true
        }
    ],
    "meshes": [
        {
            "primitives": [
                {
                    "attributes": {
                        "TEXCOORD_0": 3,
                        "TANGENT": 2,
                        "NORMAL": 1,
                        "POSITION": 0
                    },
                    "indices": 4,
                    "material": 0
                },
                {
                    "attributes": {
                        "POSITION": 0,
                        "NORMAL": 1,
                        "TANGENT": 2,
                        "TEXCOORD_0": 3
                    },
                    "indices": 5,
                    "material": 1
                },
                {
                    "attributes": {
                        "TEXCOORD_0": 3,
                        "TANGENT": 2,
                        "NORMAL": 1,
                        "POSITION": 0
                    },
                    "indices": 6,
                    "material": 2
                },
                {
                    "attributes": {
                        "TEXCOORD_0": 3,
                        "TANGENT": 2,
                        "NORMAL": 1,
                        "POSITION": 0
                    },
                    "indices": 7,
                    "material": 3
                }
            ]
        },
        {
            "primitives": [
                {
                    "attributes": {
                        "POSITION": 8,
                        "NORMAL": 9,
                        "TANGENT": 10,
                        "TEXCOORD_0": 11
                    },
                    "indices": 12,
                    "material": 0
                },
                {
                    "attributes": {
                        "TEXCOORD_0": 11,
                        "TANGENT": 10,
                        "NORMAL": 9,
                        "POSITION": 8
                    },
                    "indices": 13,
                    "material": 1
                },
                {
                    "attributes": {
                        "POSITION": 8,
                        "NORMAL": 9,
                        "TANGENT": 10,
                        "TEXCOORD_0": 11
                    },
                    "indices": 14,
                    "material": 2
                },
                {
                    "attributes": {
                        "POSITION": 8,
                        "NORMAL": 9,
                        "TANGENT": 10,
                        "TEXCOORD_0": 11
                    },
                    "indices": 15,
                    "material": 3
                }
            ]
        },
        {
            "primitives": [
                {
                    "attributes": {
                        "TEXCOORD_0": 19,
                        "TANGENT": 18,
                        "NORMAL": 17,
                        "POSITION": 16
                    },
                    "indices": 20,
                    "material": 0
                },
                {
                    "attributes": {
                        "POSITION": 16,
                        "NORMAL": 17,
                        "TANGENT": 18,
                        "TEXCOORD_0": 19
                    },
                    "indices": 21,
                    "material": 1
                },
                {
                    "attributes": {
                        "TEXCOORD_0": 19,
                        "TANGENT": 18,
                        "NORMAL": 17,
                        "POSITION": 16
                    },
                    "indices": 22,
                    "material": 2
                },
                {
                    "attributes": {
                        "TEXCOORD_0": 19,
                        "TANGENT": 18,
                        "NORMAL": 17,
                        "POSITION": 16
                    },
                    "indices": 23,
                    "material": 3
                }
            ]
        },
        {
            "primitives": [
                {
                    "attributes": {
                        "TEXCOORD_0": 27,
                        "TANGENT": 26,
                        "NORMAL": 25,
                        "POSITION": 24
                    },
                    "indices": 20,
                    "material": 0
                },
                {
                    "attributes": {
                        "POSITION": 24,
                        "NORMAL": 25,
                        "TANGENT": 26,
                        "TEXCOORD_0": 27
                    },
                    "indices": 21,
                    "material": 1
                },
                {
                    "attributes": {
                        "TEXCOORD_0": 27,
                        "TANGENT": 26,
                        "NORMAL": 25,
                        "POSITION": 24
                    },
                    "indices": 22,
                    "material": 2
                },
                {
                    "attributes": {
                        "TEXCOORD_0": 27,
                        "TANGENT": 26,
                        "NORMAL": 25,
                        "POSITION": 24
                    },
                    "indices": 23,
                    "material": 3
                }
            ]
        },
        {
            "primitives": [
                {
                    "attributes": {
                        "POSITION": 28,
                        "NORMAL": 29,
                        "TANGENT": 30,
                        "TEXCOORD_0": 31
                    },
                    "indices": 32,
                    "material": 0
                },
                {
                    "attributes": {
                        "TEXCOORD_0": 31,
                        "TANGENT": 30,
                        "NORMAL": 29,
                        "POSITION": 28
                    },
                    "indices": 33,
                    "material": 1
                },
                {
                    "attributes": {
                        "POSITION": 28,
                        "NORMAL": 29,
                        "TANGENT": 30,
                        "TEXCOORD_0": 31
                    },
                    "indices": 34,
                    "material": 2
                },
                {
                    "attributes": {
                        "POSITION": 28,
                        "NORMAL": 29,
                        "TANGENT": 30,
                        "TEXCOORD_0": 31
                    },
                    "indices": 35,
                    "material": 3
                }
            ]
        }
    ],
    "nodes": [
        {
            "name": "working_cam_n3d"
        },
        {
            "children": [
                2,
                3,
                4,
                5,
                6
            ],
            "translation": [
                0.6392396688461304,
                1.5258788721439488e-7,
                -0.8697888255119324
            ],
            "rotation": [
                -5.684341886080802e-14,
                -1.8189894035458565e-12,
                -1.0339757656912847e-25,
                1.0
            ],
            "scale": [
                10.0,
                10.0,
                10.0
            ],
            "name": "default_text_mesh2"
        },
        {
            "mesh": 0,
            "name": "default_glyph1"
        },
        {
            "mesh": 1,
            "name": "default_glyph2"
        },
        {
            "mesh": 2,
            "name": "default_glyph3"
        },
        {
            "mesh": 3,
            "name": "default_glyph4"
        },
        {
            "mesh": 4,
            "name": "default_glyph5"
        }
    ],
    "scenes": [
        {
            "nodes": [
                1
            ],
            "name": "scene"
        }
    ],
    "scene": 0
}